<svg width="26" height="26" viewBox="0 0 26 26" fill="none" xmlns="http://www.w3.org/2000/svg">
<g clip-path="url(#clip0_45_2)">
<path d="M24.408 0.597L0.706 13.026C-0.269 13.537 -0.229 14.286 0.794 14.691L3.82 15.887C4.841 16.291 6.389 16.072 7.257 15.393L20.399 5.03C21.263 4.349 21.356 4.45 20.605 5.254L10.215 16.377C9.462 17.178 9.686 18.16 10.71 18.559L11.064 18.698C12.088 19.094 13.762 19.76 14.781 20.176L18.137 21.542C19.157 21.957 19.991 22.301 19.991 22.307C19.991 22.313 19.997 22.332 20.002 22.333C20.007 22.335 20.248 21.469 20.536 20.407L25.654 1.6C25.942 0.537 25.383 0.087 24.408 0.597Z" fill="white"/>
<path d="M10.324 19.82L8.002 18.87C6.984 18.453 6.496 18.942 6.918 19.959C6.919 19.959 9.074 25.153 9.014 25.336C8.952 25.518 11.082 22.254 11.082 22.254C11.684 21.332 11.342 20.237 10.324 19.82Z" fill="white"/>
</g>
<defs>
<clipPath id="clip0_45_2">
<rect width="25.73" height="25.73" fill="white"/>
</clipPath>
</defs>
</svg>
